<?xml version="1.0" encoding="utf-8"?>
<!-- Generator: Adobe Illustrator 21.1.0, SVG Export Plug-In . SVG Version: 6.00 Build 0)  -->
<svg version="1.1" id="Layer_1" xmlns="http://www.w3.org/2000/svg" xmlns:xlink="http://www.w3.org/1999/xlink" x="0px" y="0px"
	 viewBox="0 0 81.2 81.1" style="enable-background:new 0 0 81.2 81.1;" xml:space="preserve">
<style type="text/css">
	.st0{display:none;}
	.st1{display:inline;}
	.st2{fill:#020202;}
</style>
<g class="st0">
	<g class="st1">
		<path d="M40.9,57H3c-0.7,0-1.4,0.6-1.4,1.4v8.2c0,0.8,0.6,1.4,1.4,1.4h38c0.7,0,1.4-0.6,1.4-1.4v-8.2C42.3,57.6,41.7,57,40.9,57z
			 M7,62.4H4.3v-2.7H7V62.4z M12.5,62.4H9.8v-2.7h2.7V62.4z M34.2,65.1h-2.7v-2.7h2.7V65.1z M39.6,65.1h-2.7v-2.7h2.7V65.1z
			 M36.9,54.2v-5.4H7v5.4H36.9z M3,24.3h38c0.7,0,1.4-0.6,1.4-1.4v-8.2c0-0.8-0.6-1.4-1.4-1.4H3c-0.7,0-1.4,0.6-1.4,1.4v8.2
			C1.6,23.7,2.2,24.3,3,24.3z M36.9,18.8h2.7v2.7h-2.7V18.8z M31.5,18.8h2.7v2.7h-2.7V18.8z M9.8,16.1h2.7v2.7H9.8V16.1z M4.3,16.1
			H7v2.7H4.3V16.1z M78.9,20.2H65.7l-5.4,2.7H45c0,2.3-1.8,4.1-4.1,4.1h-1.4v5.4h1.4c2.2,0,4.1,1.8,4.1,4.1v8.2
			c0,2.3-1.8,4.1-4.1,4.1h-1.4v5.4h1.4c2.2,0,4.1,1.8,4.1,4.1v2.7h33.9c0.7,0,1.4-0.6,1.4-1.4V31.1H47.7v-2.7h32.5v-6.8
			C80.3,20.8,79.7,20.2,78.9,20.2z M77.6,36.5v21.8H47.7V36.5H77.6z M77.6,25.6H64v-2.7h13.6V25.6z M74.8,39.3H50.4v16.3h24.4V39.3z
			 M72.1,50.2h-19v-2.7h19V50.2z M72.1,44.7h-19V42h19V44.7z M36.9,32.5V27H7v5.4H36.9z M3,46.1h38c0.7,0,1.4-0.6,1.4-1.4v-8.2
			c0-0.8-0.6-1.4-1.4-1.4H3c-0.7,0-1.4,0.6-1.4,1.4v8.2C1.6,45.5,2.2,46.1,3,46.1z M36.9,40.6h2.7v2.7h-2.7V40.6z M31.5,40.6h2.7
			v2.7h-2.7V40.6z M9.8,37.9h2.7v2.7H9.8V37.9z M4.3,37.9H7v2.7H4.3V37.9z M57.2,3.8V1.1L46.4,6.6L57.2,12V9.3h24.4V3.8H57.2z
			 M68.1,72H47.7v5.4h20.3v2.7l10.8-5.4l-10.8-5.4V72z"/>
	</g>
</g>
<g>
	<g>
		<path class="st2" d="M80.2,24.4V1.1H57.1v9.4H38.4v27.8H29c0-7.7-6.2-13.9-13.9-13.9c-7.7,0-13.9,6.2-13.9,13.9v4.6h37.2v27.8
			h18.7v9.4h23.1V56.8H57.1v9.3h-14V42.9h14v9.3h23.1V29.1H57.1v9.3h-14V15.2h14v9.3H80.2z M63.4,8.9l3,3L74,4.3l3.3,3.3L66.4,18.4
			l-6.3-6.3L63.4,8.9z M63.4,64.4l3,3l7.6-7.6l3.3,3.3L66.4,74l-6.3-6.3L63.4,64.4z M63.4,36.7l3,3L74,32l3.3,3.3L66.4,46.2
			l-6.3-6.3L63.4,36.7z M15.1,19.8c3.8,0,6.9-3.1,6.9-6.9c0-3.8-3.1-6.9-6.9-6.9c-3.8,0-6.9,3.1-6.9,6.9
			C8.2,16.7,11.3,19.8,15.1,19.8z"/>
	</g>
</g>
<g class="st0">
	<g class="st1">
		<path class="st2" d="M53.9,33.9c-4.1-4.1-10.2-5.3-15.6-3.1c-5.3,2.2-8.8,7.4-8.8,13.2c0,5.8,3.5,11,8.8,13.2
			c5.3,2.2,11.5,1,15.6-3.1c2.7-2.7,4.2-6.3,4.2-10.1C58.1,40.2,56.6,36.5,53.9,33.9z M51.9,37.9c-0.6,0.6-1.5,0.6-2,0
			c-3.3-3.3-8.8-3.3-12.1,0c-0.6,0.5-1.5,0.5-2,0c-0.6-0.6-0.6-1.4,0-2c4.5-4.5,11.7-4.5,16.2,0C52.4,36.4,52.4,37.3,51.9,37.9z
			 M34,23.3c-0.1-0.1-0.2-0.3-0.2-0.5L31,8.5c-0.1-0.8,0.4-1.5,1.1-1.7c0.8-0.2,1.5,0.3,1.7,1.1l2,9.9l3.9-8.7
			c0.2-0.5,0.7-0.8,1.3-0.8c0.6,0,1.1,0.3,1.3,0.8l3.9,8.7l2-9.9c0.2-0.7,0.9-1.2,1.7-1.1c0.8,0.2,1.3,0.9,1.1,1.6l-2.6,13
			c4.4,0.9,8.5,3.1,11.6,6.2c0.6,0.6,1.1,1.2,1.7,1.9h17.9c0.8,0,1.4-0.6,1.4-1.4V2.6c0-0.8-0.6-1.4-1.4-1.4H2.4
			C1.6,1.1,1,1.8,1,2.6v25.7c0,0.8,0.6,1.4,1.4,1.4H26C28.1,27,30.9,24.8,34,23.3z M56.4,6.9c0.4-0.1,0.8,0,1.1,0.2
			C57.7,7.3,58,7.6,58,8l2,9.9l3.9-8.7c0.2-0.5,0.7-0.8,1.3-0.8s1.1,0.3,1.3,0.8l3.9,8.7l2-9.9C72.4,7.6,72.7,7.3,73,7
			c0.3-0.2,0.7-0.3,1.1-0.2c0.4,0.1,0.7,0.3,0.9,0.6c0.2,0.3,0.3,0.7,0.2,1.1l-2.9,14.3c-0.1,0.6-0.6,1.1-1.2,1.1
			c-0.1,0-0.1,0-0.2,0c-0.6,0-1.1-0.3-1.3-0.8l-4.4-9.9l-4.4,9.9C60.5,23.7,60,24,59.3,24c-0.6-0.1-1.1-0.5-1.2-1.1L55.2,8.5
			C55.1,7.8,55.6,7,56.4,6.9z M22.5,24c-0.1,0-0.1,0-0.2,0c-0.6,0-1.1-0.3-1.3-0.8l-4.4-9.9l-4.4,9.9C12,23.7,11.4,24,10.8,24
			c-0.6-0.1-1.1-0.5-1.2-1.1L6.7,8.5c-0.1-0.4,0-0.8,0.2-1.1c0.2-0.3,0.5-0.5,0.9-0.6c0.4-0.1,0.8,0,1.1,0.2C9.2,7.3,9.4,7.6,9.5,8
			l2,9.9l3.9-8.7c0.2-0.5,0.7-0.8,1.3-0.8s1.1,0.3,1.3,0.8l3.9,8.7l2-9.9c0.2-0.7,0.9-1.2,1.7-1.1c0.8,0.2,1.3,0.9,1.1,1.6
			l-2.9,14.3C23.7,23.4,23.2,23.9,22.5,24z M37,22.2c2.2-0.7,4.5-1,6.8-1c0.2,0,0.4,0,0.7,0l-3.5-7.9L37,22.2z M63.8,43.9
			c0-5.3-2.1-10.4-5.9-14.1c-6.7-6.7-17.3-7.8-25.2-2.5c-7.9,5.3-11,15.5-7.4,24.3c3.6,8.8,13,13.8,22.4,12
			C57,61.7,63.8,53.5,63.8,43.9z M37.2,59.8c-6.4-2.7-10.6-8.9-10.6-15.8c0-6.9,4.2-13.2,10.6-15.8c6.4-2.7,13.8-1.2,18.7,3.7
			c3.2,3.2,5,7.6,5,12.1c0,4.5-1.8,8.9-5,12.1C51,61,43.6,62.4,37.2,59.8z M66,58.1c0.6-0.6,0.6-1.5,0-2c-0.3-0.3-0.6-0.4-1-0.4
			c-0.4,0-0.7,0.2-1,0.4l-8.1,8.1c-0.3,0.3-0.4,0.6-0.4,1c0,0.4,0.1,0.8,0.4,1c0.3,0.3,0.6,0.4,1,0.4c0.4,0,0.7-0.2,1-0.4L66,58.1
			L66,58.1z M81,78.3c0-0.8-0.3-1.5-0.8-2L66,62.1l-4,4l14.1,14.1c0.5,0.5,1.3,0.8,2,0.8c0.8,0,1.5-0.3,2-0.8v0
			C80.7,79.8,81,79,81,78.3z"/>
	</g>
</g>
</svg>
