<svg xmlns="http://www.w3.org/2000/svg" viewBox="0 0 22.7 22.6"><path d="M19.7 2h-1V.3H17V2H5.7V.3H3.9V2h-1C1.5 2 .3 3.1.3 4.5v15.1a2.65 2.65 0 0 0 2.6 2.6h16.8a2.65 2.65 0 0 0 2.6-2.6V4.5c0-1.4-1.1-2.5-2.6-2.5zm.9 17.7c0 .5-.4.9-.9.9H2.9c-.5 0-.9-.4-.9-.9V8.3h18.6v11.4zm0-13.1H2.1V4.5c0-.5.4-.9.9-.9h1v1.7h1.7V3.7H17v1.7h1.7V3.7h1c.5 0 .9.4.9.9v2zM5.3 10.1H3.6v1.7h1.7v-1.7zm3.5 0H7v1.7h1.7v-1.7zm3.4 0h-1.7v1.7h1.7v-1.7zm3.4 0h-1.7v1.7h1.7v-1.7zm3.5 0h-1.7v1.7h1.7v-1.7zM5.3 13.6H3.6v1.7h1.7v-1.7zm3.5 0H7v1.7h1.7v-1.7zm3.4 0h-1.7v1.7h1.7v-1.7zm3.4 0h-1.7v1.7h1.7v-1.7zM5.3 17H3.6v1.7h1.7V17zm3.5 0H7v1.7h1.7V17zm3.4 0h-1.7v1.7h1.7V17zm3.4 0h-1.7v1.7h1.7V17zm3.5-3.4h-1.7v1.7h1.7v-1.7z" fill="#b6b6b6"/></svg>