<?xml version="1.0" encoding="utf-8"?>
<!-- Generator: Adobe Illustrator 21.1.0, SVG Export Plug-In . SVG Version: 6.00 Build 0)  -->
<svg version="1.1" id="Layer_1" xmlns="http://www.w3.org/2000/svg" xmlns:xlink="http://www.w3.org/1999/xlink" x="0px" y="0px"
	 viewBox="0 0 37 36.7" style="enable-background:new 0 0 37 36.7;" xml:space="preserve">
<style type="text/css">
	.st0{display:none;}
	.st1{display:inline;}
	.st2{fill:#020202;}
	.st3{fill:#6839D3;}
	.st4{display:inline;fill:#010101;}
</style>
<g class="st0">
	<g class="st1">
		<path d="M40.3,57h-38C1.6,57,1,57.6,1,58.3v8.2c0,0.8,0.6,1.4,1.4,1.4h38c0.7,0,1.4-0.6,1.4-1.4v-8.2C41.7,57.6,41.1,57,40.3,57z
			 M6.4,62.4H3.7v-2.7h2.7V62.4z M11.8,62.4H9.1v-2.7h2.7V62.4z M33.5,65.1h-2.7v-2.7h2.7V65.1z M39,65.1h-2.7v-2.7H39V65.1z
			 M36.3,54.2v-5.4H6.4v5.4H36.3z M2.4,24.3h38c0.7,0,1.4-0.6,1.4-1.4v-8.2c0-0.8-0.6-1.4-1.4-1.4h-38C1.6,13.4,1,14,1,14.7v8.2
			C1,23.7,1.6,24.3,2.4,24.3z M36.3,18.8H39v2.7h-2.7V18.8z M30.8,18.8h2.7v2.7h-2.7V18.8z M9.1,16.1h2.7v2.7H9.1V16.1z M3.7,16.1
			h2.7v2.7H3.7V16.1z M78.3,20.2H65l-5.4,2.7H44.4c0,2.3-1.8,4.1-4.1,4.1H39v5.4h1.4c2.2,0,4.1,1.8,4.1,4.1v8.2
			c0,2.3-1.8,4.1-4.1,4.1H39v5.4h1.4c2.2,0,4.1,1.8,4.1,4.1v2.7h33.9c0.7,0,1.4-0.6,1.4-1.4V31.1H47.1v-2.7h32.5v-6.8
			C79.6,20.8,79,20.2,78.3,20.2z M76.9,36.5v21.8H47.1V36.5H76.9z M76.9,25.6H63.4v-2.7h13.6V25.6z M74.2,39.3H49.8v16.3h24.4V39.3z
			 M71.5,50.2h-19v-2.7h19V50.2z M71.5,44.7h-19V42h19V44.7z M36.3,32.5V27H6.4v5.4H36.3z M2.4,46.1h38c0.7,0,1.4-0.6,1.4-1.4v-8.2
			c0-0.8-0.6-1.4-1.4-1.4h-38c-0.7,0-1.4,0.6-1.4,1.4v8.2C1,45.5,1.6,46.1,2.4,46.1z M36.3,40.6H39v2.7h-2.7V40.6z M30.8,40.6h2.7
			v2.7h-2.7V40.6z M9.1,37.9h2.7v2.7H9.1V37.9z M3.7,37.9h2.7v2.7H3.7V37.9z M56.6,3.8V1.1L45.7,6.6L56.6,12V9.3H81V3.8H56.6z
			 M67.4,72H47.1v5.4h20.3v2.7l10.8-5.4l-10.8-5.4V72z"/>
	</g>
</g>
<g class="st0">
	<g class="st1">
		<path class="st2" d="M80.2,24.4V1.1H57.1v9.4H38.4v27.8H29c0-7.7-6.2-13.9-13.9-13.9c-7.7,0-13.9,6.2-13.9,13.9v4.6h37.2v27.8
			h18.7v9.4h23.1V56.8H57.1v9.3h-14V42.9h14v9.3h23.1V29.1H57.1v9.3h-14V15.2h14v9.3H80.2z M63.4,8.9l3,3L74,4.3l3.3,3.3L66.4,18.4
			l-6.3-6.3L63.4,8.9z M63.4,64.4l3,3l7.6-7.6l3.3,3.3L66.4,74l-6.3-6.3L63.4,64.4z M63.4,36.7l3,3L74,32l3.3,3.3L66.4,46.2
			l-6.3-6.3L63.4,36.7z M15.1,19.8c3.8,0,6.9-3.1,6.9-6.9c0-3.8-3.1-6.9-6.9-6.9c-3.8,0-6.9,3.1-6.9,6.9
			C8.2,16.7,11.3,19.8,15.1,19.8z"/>
	</g>
</g>
<g class="st0">
	<g class="st1">
		<path class="st2" d="M53.9,33.9c-4.1-4.1-10.2-5.3-15.6-3.1c-5.3,2.2-8.8,7.4-8.8,13.2c0,5.8,3.5,11,8.8,13.2
			c5.3,2.2,11.5,1,15.6-3.1c2.7-2.7,4.2-6.3,4.2-10.1C58.1,40.2,56.6,36.5,53.9,33.9z M51.9,37.9c-0.6,0.6-1.5,0.6-2,0
			c-3.3-3.3-8.8-3.3-12.1,0c-0.6,0.5-1.5,0.5-2,0c-0.6-0.6-0.6-1.4,0-2c4.5-4.5,11.7-4.5,16.2,0C52.4,36.4,52.4,37.3,51.9,37.9z
			 M34,23.3c-0.1-0.1-0.2-0.3-0.2-0.5L31,8.5c-0.1-0.8,0.4-1.5,1.1-1.7c0.8-0.2,1.5,0.3,1.7,1.1l2,9.9l3.9-8.7
			c0.2-0.5,0.7-0.8,1.3-0.8c0.6,0,1.1,0.3,1.3,0.8l3.9,8.7l2-9.9c0.2-0.7,0.9-1.2,1.7-1.1c0.8,0.2,1.3,0.9,1.1,1.6l-2.6,13
			c4.4,0.9,8.5,3.1,11.6,6.2c0.6,0.6,1.1,1.2,1.7,1.9h17.9c0.8,0,1.4-0.6,1.4-1.4V2.6c0-0.8-0.6-1.4-1.4-1.4H2.4
			C1.6,1.1,1,1.8,1,2.6v25.7c0,0.8,0.6,1.4,1.4,1.4H26C28.1,27,30.9,24.8,34,23.3z M56.4,6.9c0.4-0.1,0.8,0,1.1,0.2
			C57.7,7.3,58,7.6,58,8l2,9.9l3.9-8.7c0.2-0.5,0.7-0.8,1.3-0.8s1.1,0.3,1.3,0.8l3.9,8.7l2-9.9C72.4,7.6,72.7,7.3,73,7
			c0.3-0.2,0.7-0.3,1.1-0.2c0.4,0.1,0.7,0.3,0.9,0.6c0.2,0.3,0.3,0.7,0.2,1.1l-2.9,14.3c-0.1,0.6-0.6,1.1-1.2,1.1
			c-0.1,0-0.1,0-0.2,0c-0.6,0-1.1-0.3-1.3-0.8l-4.4-9.9l-4.4,9.9C60.5,23.7,60,24,59.3,24c-0.6-0.1-1.1-0.5-1.2-1.1L55.2,8.5
			C55.1,7.8,55.6,7,56.4,6.9z M22.5,24c-0.1,0-0.1,0-0.2,0c-0.6,0-1.1-0.3-1.3-0.8l-4.4-9.9l-4.4,9.9C12,23.7,11.4,24,10.8,24
			c-0.6-0.1-1.1-0.5-1.2-1.1L6.7,8.5c-0.1-0.4,0-0.8,0.2-1.1c0.2-0.3,0.5-0.5,0.9-0.6c0.4-0.1,0.8,0,1.1,0.2C9.2,7.3,9.4,7.6,9.5,8
			l2,9.9l3.9-8.7c0.2-0.5,0.7-0.8,1.3-0.8s1.1,0.3,1.3,0.8l3.9,8.7l2-9.9c0.2-0.7,0.9-1.2,1.7-1.1c0.8,0.2,1.3,0.9,1.1,1.6
			l-2.9,14.3C23.7,23.4,23.2,23.9,22.5,24z M37,22.2c2.2-0.7,4.5-1,6.8-1c0.2,0,0.4,0,0.7,0l-3.5-7.9L37,22.2z M63.8,43.9
			c0-5.3-2.1-10.4-5.9-14.1c-6.7-6.7-17.3-7.8-25.2-2.5c-7.9,5.3-11,15.5-7.4,24.3c3.6,8.8,13,13.8,22.4,12
			C57,61.7,63.8,53.5,63.8,43.9z M37.2,59.8c-6.4-2.7-10.6-8.9-10.6-15.8c0-6.9,4.2-13.2,10.6-15.8c6.4-2.7,13.8-1.2,18.7,3.7
			c3.2,3.2,5,7.6,5,12.1c0,4.5-1.8,8.9-5,12.1C51,61,43.6,62.4,37.2,59.8z M66,58.1c0.6-0.6,0.6-1.5,0-2c-0.3-0.3-0.6-0.4-1-0.4
			c-0.4,0-0.7,0.2-1,0.4l-8.1,8.1c-0.3,0.3-0.4,0.6-0.4,1c0,0.4,0.1,0.8,0.4,1c0.3,0.3,0.6,0.4,1,0.4c0.4,0,0.7-0.2,1-0.4L66,58.1
			L66,58.1z M81,78.3c0-0.8-0.3-1.5-0.8-2L66,62.1l-4,4l14.1,14.1c0.5,0.5,1.3,0.8,2,0.8c0.8,0,1.5-0.3,2-0.8v0
			C80.7,79.8,81,79,81,78.3z"/>
	</g>
</g>
<g class="st0">
	<g class="st1">
		<path class="st3" d="M52.2,24.6H28.8v4.5h-2.3v4.7h2.3v4.8h-2.3v4.7h2.3v4.8h-2.3v4.7h2.3v4.5h23.5v-4.5h2.3v-4.7h-2.3v-4.8h2.3
			v-4.7h-2.3v-4.8h2.3v-4.7h-2.3V24.6z M78.7,50c-0.8-3-1.9-6-3.3-9c4.3-9.3,5.7-18.5,3.6-25.8c-1.2,1-2.6,1.7-4.2,2.1
			c1.1,4.6,0.6,10.2-1.4,16.4c-0.2,0.7-0.5,1.4-0.7,2c-3.1-5.3-7.1-10.5-11.8-15.3c-4.7-4.8-9.8-8.8-15.1-11.9
			c0.7-0.3,1.3-0.5,2-0.7C53.9,5.6,59.4,5.2,64,6.3c0.3-1.6,1-3.1,2-4.3c-7.2-2.1-16.3-0.7-25.5,3.6c-3-1.4-5.9-2.5-8.9-3.3
			C21.2-0.4,12.4,1.2,6.8,6.8C1.2,12.5-0.4,21.5,2.3,32c0.8,3,1.9,6,3.3,9C1.3,50.3-0.1,59.5,2,66.8c1.2-1,2.6-1.7,4.2-2.1
			c-1.1-4.6-0.6-10.2,1.4-16.4c0.2-0.7,0.5-1.4,0.7-2c3.1,5.3,7.1,10.5,11.8,15.3c4.7,4.8,9.8,8.8,15.1,11.9c-0.7,0.3-1.3,0.5-2,0.7
			c-6.1,2.1-11.6,2.5-16.2,1.4c-0.3,1.6-1,3.1-2,4.3c2.2,0.7,4.6,1,7.2,1c5.7,0,12-1.6,18.3-4.6c3,1.4,5.9,2.5,8.9,3.3
			c3.3,0.9,6.5,1.3,9.5,1.3c6.3,0,11.6-2,15.4-5.8C79.8,69.5,81.4,60.5,78.7,50z M6.8,30.8C4.5,22,5.6,14.6,10,10.2
			c2.9-3,7.1-4.5,12.1-4.5c2.6,0,5.3,0.4,8.3,1.2c1.6,0.4,3.2,0.9,4.8,1.6c-5.2,3.1-10.4,7.1-15.1,11.9c-4.8,4.8-8.7,10-11.8,15.3
			C7.7,34.1,7.2,32.4,6.8,30.8z M23.4,58.3C18.1,53,13.8,47,10.7,41c3.1-6,7.4-12,12.7-17.3c5.2-5.3,11.1-9.7,17.1-12.8
			c5.9,3.1,11.8,7.5,17.1,12.8C62.9,29,67.2,35,70.3,41c-3.1,6-7.4,12-12.7,17.3c-5.2,5.3-11.1,9.7-17.1,12.8
			C34.5,68.1,28.7,63.7,23.4,58.3z M71,71.8c-4.4,4.5-11.7,5.6-20.4,3.3c-1.6-0.4-3.2-0.9-4.8-1.6c5.2-3.1,10.4-7.1,15.1-11.9
			c4.8-4.8,8.7-10,11.8-15.3c0.6,1.6,1.1,3.2,1.6,4.8C76.5,60,75.4,67.4,71,71.8z M73.1,12.7c2.6,0,4.6-2.1,4.6-4.7
			c0-2.6-2.1-4.7-4.6-4.7c-2.6,0-4.6,2.1-4.6,4.7C68.4,10.6,70.5,12.7,73.1,12.7z M7.9,69.3c-2.6,0-4.6,2.1-4.6,4.7
			c0,2.6,2.1,4.7,4.6,4.7c2.6,0,4.6-2.1,4.6-4.7C12.6,71.4,10.5,69.3,7.9,69.3z"/>
	</g>
</g>
<g class="st0">
	<g class="st1">
		<path class="st3" d="M39.6,56.8V43.5l-3.7-3.3c-1.1,1.9-1.8,4-1.8,6.4C34.1,50.8,36.3,54.6,39.6,56.8z M46.5,64.4
			c9.9,0,17.9-8,17.9-17.9c0-9.9-8-17.9-17.9-17.9c-9.7,0-17.9,8.2-17.9,17.9C28.6,56.4,36.6,64.4,46.5,64.4z M46.5,31.3
			c8.4,0,15.2,6.8,15.2,15.2c0,8.4-6.8,15.2-15.2,15.2c-8.4,0-15.2-6.8-15.2-15.2C31.3,38.2,38.2,31.3,46.5,31.3z M42.4,26.3V14.8
			H9.3v22.1h19C31.2,31.5,36.4,27.5,42.4,26.3z M58.8,45.1c-0.7-6.2-6-11-12.3-11c-3.5,0-6.7,1.5-9,3.8l8.1,7.2H58.8z M20.3,45.1
			v16.6h12.2c-4.1-3.8-6.7-9.2-6.7-15.2c0-0.5,0-0.9,0.1-1.4H20.3z M42.4,45.9v12.3c1.3,0.5,2.7,0.7,4.1,0.7c0.5,0,0.9,0,1.4-0.1
			v-11h-3.3L42.4,45.9z M70,61.7h8.3V9.3H3.8v52.4h5.5V51.5l9.1-9.1h7.9c0.2-0.9,0.5-1.9,0.8-2.8H6.5V12h38.6v13.9
			c0.5,0,0.9-0.1,1.4-0.1c11.4,0,20.7,9.3,20.7,20.7c0,3.7-1,7.2-2.8,10.3L70,61.7z M70,25.8h-2.8v-2.8H70V25.8z M75.5,25.8h-2.8
			v-2.8h2.8V25.8z M56.2,12h19.3v2.8H56.2V12z M64.4,25.8h-2.8v-2.8h2.8V25.8z M56.2,20.3v-2.8h19.3v2.8H56.2z M50.7,58.2
			c4.4-1.6,7.7-5.5,8.2-10.3h-8.2V58.2z M46.5,67.2c-3.7,0-7.2-1-10.3-2.8H1v1.4C1,68.1,2.9,70,5.1,70h56.5l-4.9-5.5
			C53.8,66.2,50.3,67.2,46.5,67.2z M17.6,61.7V47.1L12,52.6v9.1H17.6z M78.8,69.5c1.3-0.7,2.2-2.1,2.2-3.7v-1.4h-7.9L78.8,69.5z
			 M62.9,59.1c-1.1,1.4-2.4,2.7-3.8,3.8l14.8,16.7c0.8,0.9,1.9,1.4,3,1.4c2.2,0,4-1.8,4-4c0-1.2-0.5-2.3-1.4-3L62.9,59.1z M64,66
			l-2-2l2-2l2,2L64,66z M66,67.9l2-2l2,2l-2,2L66,67.9z M71.7,73.7l-1.9-1.9l2-2l1.9,1.9L71.7,73.7z M76.9,1H5.1C2.9,1,1,2.9,1,5.1
			v1.4h80V5.1C81,2.9,79.1,1,76.9,1z"/>
	</g>
</g>
<g class="st0">
	<g class="st1">
		<path d="M69.1,59.8L53,43.7c-2.4,3.7-5.6,6.9-9.3,9.3l16.1,16.1c2.6,2.6,6.7,2.6,9.3,0C71.6,66.5,71.6,62.4,69.1,59.8z M53.5,27.3
			C53.5,12.8,41.7,1,27.2,1C12.8,1,1,12.8,1,27.3c0,14.5,11.8,26.2,26.2,26.2C41.7,53.5,53.5,41.7,53.5,27.3z M27.2,46.9
			c-10.9,0-19.7-8.8-19.7-19.7c0-10.9,8.8-19.7,19.7-19.7s19.7,8.8,19.7,19.7C46.9,38.1,38.1,46.9,27.2,46.9z M11.9,27.3h4.4
			c0-6,4.9-10.9,10.9-10.9v-4.4C18.8,11.9,11.9,18.8,11.9,27.3z"/>
	</g>
</g>
<g class="st0">
	<path class="st4" d="M1,16.5c0-0.2,0-0.4,0-0.6c0.8-0.9,0.9-2,1-3.2c0-0.9,0.4-1.6,0.8-2.4c1-2,2-4.1,2.1-6.5c0-0.5,0.1-1.1,0-1.6
		c0-0.3,0-0.7,0.3-0.8c0.3-0.2,0.6,0.1,0.7,0.3c0.4,0.4,0.9,0.4,1.3,0.8c0.1,0.2,0.1,0.4,0.2,0.7c0-0.4-0.1-0.6-0.2-0.8
		c0-0.1,0-0.1,0-0.2c0.1-0.3,0.2-0.5,0.2-0.8c0-0.1,0-0.3,0.1-0.4C7.7,1,7.8,1,8,1c2.4,0.4,4.7,1.2,7.1,1.6c1.9,0.4,3.7,0.7,5.6,1
		c2,0.3,4,0.6,6,0.8c1.6,0.2,3.1,0.3,4.7,0.4c1.7,0.1,3.4,0.3,5.2,0.2c0.4,0,0.7,0,1-0.4c0.3-0.4,0.7-0.3,0.9,0.2
		c0.4,0.8,0.5,0.9,1.4,0.9c0.2,0,0.4,0,0.6,0.1c0.7,0.5,1.5,0.7,2.3,0.7c0.8,0,1.5,0.2,2.2-0.4c0.3-0.2,0.7-0.1,1,0.1
		c1,0.6,2,1.1,3,1.6c0.7,0.4,1.2,1,1.8,1.5c0.5,0.4,0.9,0.9,1.5,1.3c0.4,0.2,0.7,0.6,0.8,1.1c0.2,0.8,0.5,1.5,0.6,2.3
		c0.2,0.9,0,1.8-0.5,2.7c-0.1,0.3-0.4,0.5-0.1,0.8c0.3,0.2,0.6,0.1,0.8-0.1c0.7-0.8,1.6-1.2,2.5-1.7c0.5-0.3,0.8-0.7,0.6-1.4
		c-0.2-0.5,0.1-0.8,0.5-0.9c0.5-0.2,1-0.4,1.6-0.5c0.3-0.1,0.5-0.1,0.6-0.5c0.6-1.6,1.6-2.8,3.4-3c0.4-0.1,0.8-0.2,1.3-0.3
		c1.1-0.3,1.7-1.3,1.6-2.4c-0.1-0.9,0.2-1.7,0.5-2.5c0-0.1,0.1-0.2,0.2-0.2c0.5,0,1-0.3,1.5-0.2C68.7,3.7,69,4,69.1,4.5
		c0.2,1.1,0.7,2,1.6,2.7c0.5,0.4,0.5,0.8,0,1.3c-0.2,0.3-0.5,0.6-0.8,0.9c-0.3,0.2-0.5,0.5-0.9,0.2c0.2,0.6-0.2,1-0.6,1.3
		c-0.3,0.2-0.4,0.4-0.5,0.7c-0.2,1.1-0.1,2.1,0.7,2.8c0.1,0.1,0.1,0.3,0.1,0.4c0,0.2-0.1,0.4-0.3,0.5c-0.7,0.2-1.1,0.8-1.8,1
		c-0.1,0-0.2,0.1-0.4,0.1c-0.3,0.1-0.6,0.3-0.9,0.5c-0.1,0.1-0.2,0.2-0.3,0.3c-0.1,0.2,0,0.5-0.1,0.7c0.3,1,0,2-0.4,3
		c-0.2,0.5-0.3,0.5-0.8,0.2c1,0.9,0.5,1.8,0.2,2.7c-0.1,0.3-0.1,0.9-0.5,0.9c-0.4,0-0.2-0.6-0.3-1c-0.1-0.3-0.1-0.7-0.5-0.7
		c-0.1,0-0.1,0-0.2,0c-0.1-0.1-0.1,0.1-0.1,0.1c-0.1,0.2,0,0.3,0.2,0.4c0.2,0.2,0.1-0.2,0.3-0.2c0.4,0.4,0.5,0.8,0.3,1.3
		c0,0.1-0.3,0.1-0.2,0.3c0.1,0.1,0.3,0,0.4,0c0.4,0,0.5,0.3,0.6,0.5c0.2,0.4,0.4,0.9,0.7,1.3c0.2,0.2,0.1,0.4-0.1,0.7
		c-0.3,0.4-0.8,0.8-0.6,1.5c0.1,0.2-0.3,0.5-0.6,0.6c-0.6,0.2-1,0.6-1.2,1.3c-0.1,0.4-0.4,0.5-0.7,0.7c-0.4,0.2-0.7,0.5-0.8,0.9
		c-0.2,0.8-0.7,1.4-1.2,1.9c-0.9,0.9-1.3,2.1-1.3,3.3c-0.1,0.8,0.3,1.6,0.8,2.2c1,1.3,1.4,2.8,2.2,4.1c0.2,0.4,0.3,0.8,0.3,1.3
		c0,0.6,0,1.1,0,1.7c0,1-0.3,1.2-1.3,1.2c-0.3,0-0.4-0.2-0.5-0.4c-0.1-0.5-0.6-0.7-0.9-1c-0.6-0.6-1.2-1.3-1.7-2.1
		c-0.5-0.8-1-1.5-0.7-2.5c0.1-0.3-0.1-0.6-0.3-0.8c-0.5-0.4-1-0.9-1.5-1.3c-0.2-0.2-0.5-0.2-0.8,0c-0.2,0.2-0.5,0.4-0.9,0.5
		c-0.4,0.1-0.7,0.1-1-0.2c-0.6-0.6-1.3-0.9-2.1-0.6c-0.9,0.4-1.7,0.2-2.6,0.2c-0.3,0-0.7,0-0.7,0.2c0.1,0.4-0.4,0.9,0.2,1.2
		c0.3,0.2,0.6,0.4,0.4,0.7c-0.2,0.3-0.6,0.2-0.8,0c-0.3-0.2-0.5-0.2-0.9,0c-0.9,0.5-1.6,0.2-2.4-0.7c-0.2-0.2-0.1-0.1-0.2,0
		c-0.5,0.4-1,0.3-1.5,0.1c-0.9-0.4-1.7-0.1-2.5,0.5c-0.8,0.6-1.5,1.3-2.5,1.7c-1.1,0.5-1.7,1.9-1.5,3.3c0.2,1.5,0.2,1.6-1.3,1.2
		c-1.5-0.3-2.4-1.1-2.6-2.6c-0.1-0.5-0.5-0.8-0.7-1.2c-0.3-0.6-0.6-1.1-0.8-1.7c-0.3-0.8-0.9-1.4-1.8-1.5c-0.5-0.1-0.8,0.1-1,0.5
		c-0.6,1-0.8,1-1.7,0.3c-0.8-0.5-1.4-1.1-1.4-2.1c0-0.5-0.3-0.9-0.7-1.2c-0.3-0.3-0.6-0.7-0.9-1c-0.5-0.9-1.4-0.8-2.3-1
		c-0.2,0-0.4,0.1-0.4,0.3c-0.2,0.5-0.6,0.5-1,0.4c-1-0.2-2-0.4-3-0.5c-0.4,0-0.7-0.2-1-0.4c-1.5-1-3.2-1.8-4.6-3
		c-0.4-0.4-1.1-0.2-1.7-0.3c-0.2,0-0.5,0-0.7,0c-0.6,0-0.9-0.3-0.9-0.9c0-1.2-0.8-1.8-1.5-2.5c-0.6-0.5-1.1-1.3-2-1.5
		c-0.3-0.1-0.4-0.5-0.3-0.8c0.1-0.4,0-0.9-0.2-1.3c-0.3-0.9-0.6-1.8-0.7-2.8C2,22.3,1.9,21.1,1.4,20c-0.3-0.7-0.3-1.4-0.2-2.2
		C1.2,17.4,1.2,16.9,1,16.5z"/>
</g>
<g class="st0">
	<path class="st4" d="M43,11.1c-1.1-4.8-4.5-9.5-10.9-10c-3-0.2-5.8,0.5-8.3,2.5c-0.3,0.3-0.3,0.4,0,0.7c1.4,1.3,2.7,2.6,4,4
		c1.2,1.3,1.6,2.9,1.1,4.7c-1,3.5-4.6,4.8-7.8,2.9c-0.4-0.2-0.6-0.3-1,0.1c-2.8,2.8-5.6,5.7-8.5,8.5c-0.2,0.2-0.5,0.5-0.6,0.7
		c-0.6,0.8-0.5,1.7,0.1,2.5c0.7,0.8,1.6,1,2.5,0.5c0.4-0.2,0.8-0.5,1.1-0.8c2.9-2.9,5.9-5.8,8.7-8.8c0.4-0.4,0.7-1.1,1.2-1
		c0.4,0,0.8,0.7,1.3,1c0.6,0.4,0.5,0.7,0,1.1c-3.2,3.2-6.3,6.3-9.5,9.5c-0.2,0.2-0.4,0.4-0.5,0.6c-0.7,0.9-0.7,2,0.1,2.8
		c0.7,0.8,1.8,0.9,2.7,0.2c0.3-0.2,0.5-0.4,0.7-0.6c3-3,6-6,9-9c1-1,1-0.9,1.9,0c0.5,0.5,0.4,0.8,0,1.2c-0.1,0.1-0.2,0.2-0.4,0.4
		c-3,3-5.9,5.9-8.9,8.9c-0.5,0.5-0.8,0.9-1.1,1.6c-0.4,1.2,0.9,2.8,2.2,2.7c0.2,0,0.3-0.1,0.5-0.2c0.7-0.6,1.5-1.2,2.2-1.8
		c4.9-4.8,9.8-9.6,14.6-14.5c2.3-2.4,3.4-5.3,3.5-8.6C43.1,12.2,43.2,11.6,43,11.1z"/>
	<path class="st4" d="M14.4,9.6c0.3-0.2,0.2-0.4,0-0.6c-0.6-0.6-1.3-1.1-1.9-1.7c-0.9-0.9-0.9-0.8,0-1.7c0.4-0.4,0.7-0.4,1.1,0.1
		c2.7,2.7,5.4,5.4,8.1,8.1c0.6,0.6,1.2,1,2.1,1c1.3,0.1,2.5-0.7,3.1-1.9c0.5-1.1,0.3-2.4-0.7-3.4C24.5,7.7,22.8,6,21,4.4
		c-2.3-2.2-5-3.3-8.3-3.4C9.4,1,6.5,2.4,4.1,4.9C0.1,9-0.1,16.1,3.7,20.4c0.3,0.3,0.4,0.3,0.6,0c0.5-0.8,1-1.6,1.6-2.2
		c1.6-1.6,3.2-3.2,4.8-4.9C12,12.1,13.2,10.8,14.4,9.6z"/>
	<path class="st4" d="M18.6,13.8c-0.8-0.8-1.6-1.6-2.4-2.4c-0.2-0.2-0.4-0.2-0.6,0c-0.6,0.6-1.1,1.1-1.7,1.7
		c-2.4,2.4-4.9,4.9-7.3,7.3C6,21,5.9,21.8,6.3,22.6c0.4,0.8,1,1.3,1.9,1.3c0.4,0,0.8-0.1,1.1-0.3c0.2-0.1,0.4-0.3,0.6-0.5
		c2.9-2.9,5.8-5.7,8.6-8.6C18.7,14.3,19,14.1,18.6,13.8z"/>
</g>
<g>
	<path class="st3" d="M36,17c0-0.7-0.6-1.2-1.2-1.2h-4.9c-0.7,0-1.2,0.5-1.2,1.2c0,0.7,0.5,1.2,1.2,1.2h3.7l-0.1,15H3.4v-15l3.2,0
		c0.7,0,1.2-0.6,1.2-1.2v0c0-0.7-0.6-1.2-1.2-1.2l-4.4,0C1.5,15.8,1,16.3,1,17v17.5c0,0.7,0.5,1.2,1.2,1.2h32.6c0.2,0,0.3,0,0.5-0.1
		c0.5-0.2,0.8-0.7,0.7-1.2L36,17z"/>
	<path class="st3" d="M19.7,27.4c0,0.7,0.5,1.2,1.2,1.2h0c0.7,0,1.2-0.5,1.2-1.2v-7l0,0c0,0-0.1-4.8,3-8.1l4.9-5
		c0.8-0.8,2.1-0.3,2.1,0.8v2.7c0,0.7,0.5,1.2,1.2,1.2h0c0.7,0,1.2-0.5,1.2-1.2V2.2c0-0.7-0.5-1.2-1.2-1.2h-8.6
		c-0.7,0-1.2,0.5-1.2,1.2v0c0,0.7,0.5,1.2,1.2,1.2h2.7c1.1,0,1.6,1.3,0.9,2.1l0,0l-4.9,5c-3.8,3.9-3.8,9.4-3.7,9.9V27.4z"/>
	<path class="st3" d="M3.2,12L3.2,12c0.7,0,1.2-0.5,1.2-1.2V8.1c0-1.1,1.3-1.6,2.1-0.8l4.9,5c3.2,3.3,3,8,3,8.1l0,0v7
		c0,0.7,0.5,1.2,1.2,1.2h0c0.7,0,1.2-0.5,1.2-1.2v-7c0-0.5,0.1-6-3.7-9.9l-4.9-5l0,0C7.5,4.8,8,3.5,9.1,3.5h2.7
		c0.7,0,1.2-0.5,1.2-1.2v0C13,1.5,12.5,1,11.8,1H3.2C2.5,1,2,1.5,2,2.2v8.6C2,11.5,2.5,12,3.2,12z"/>
</g>
</svg>
