<svg xmlns="http://www.w3.org/2000/svg" viewBox="0 0 34.3 32.3"><path d="M33.2 2.9c-.7-.1-1.3.3-1.5.9L30.8 8C28 3.2 22.7.1 17 .1 8.2.1 1 7.3 1 16c0 .7.6 1.2 1.2 1.2.7 0 1.2-.5 1.2-1.2C3.4 8.6 9.5 2.6 17 2.6a13.52 13.52 0 0 1 11.7 6.7l-4.1-.9c-.7-.1-1.3.3-1.5.9-.1.7.3 1.3.9 1.5l7.1 1.5h.4c.2 0 .4-.1.6-.2.3-.2.5-.5.5-.8l1.5-7c.2-.6-.2-1.3-.9-1.4zm-1.3 11.6c-.7 0-1.2.6-1.2 1.3.1 3.6-1.2 7-3.7 9.7-2.5 2.6-5.8 4.1-9.5 4.3H17c-4.7 0-9.1-2.4-11.5-6.4l4.3 1.1c.7.2 1.3-.2 1.5-.9s-.2-1.3-.9-1.5l-7-1.9c-.3-.1-.7 0-.9.1-.3.2-.5.4-.6.7L.2 28c-.2.7.2 1.3.9 1.5h.3c.5 0 1-.4 1.2-.9l1.1-3.9c2.9 4.6 8 7.4 13.5 7.4h.5a15.77 15.77 0 0 0 11.2-5c2.9-3.1 4.5-7.2 4.3-11.4 0-.7-.6-1.3-1.3-1.2z" fill="#1a1a1a"/></svg>